<?xml version="1.0" standalone="no"?>
<!DOCTYPE svg PUBLIC "-//W3C//DTD SVG 20010904//EN"
 "http://www.w3.org/TR/2001/REC-SVG-20010904/DTD/svg10.dtd">
<svg version="1.0" xmlns="http://www.w3.org/2000/svg"
 width="620.000000pt" height="620.000000pt" viewBox="0 0 620.000000 620.000000"
 preserveAspectRatio="xMidYMid meet">
<metadata>
Created by potrace 1.11, written by Peter Selinger 2001-2013
</metadata>
<g transform="translate(0.000000,620.000000) scale(0.100000,-0.100000)"
fill="#000000" stroke="none">
<path d="M2888 6195 c-1 -2 -39 -6 -83 -10 -44 -3 -89 -8 -100 -10 -11 -2 -40
-7 -65 -10 -177 -21 -469 -100 -672 -180 -650 -260 -1172 -702 -1528 -1295
-117 -194 -224 -432 -290 -645 -54 -172 -58 -188 -79 -290 -52 -253 -66 -388
-66 -650 0 -303 23 -497 90 -758 61 -242 120 -402 229 -622 85 -171 99 -196
209 -360 214 -321 513 -619 839 -837 169 -113 317 -193 523 -284 176 -77 475
-167 632 -189 21 -3 49 -8 63 -11 14 -2 37 -7 53 -9 15 -3 39 -7 55 -10 100
-18 484 -26 662 -13 268 20 676 115 885 207 11 5 49 21 85 37 77 33 225 104
260 125 14 9 54 33 90 54 235 138 407 273 615 480 342 341 593 748 749 1218
37 113 75 252 82 300 1 15 5 31 8 36 3 4 8 26 11 47 2 21 7 50 10 64 3 14 7
43 10 65 3 22 8 56 10 75 27 197 27 574 0 765 -9 72 -18 131 -21 140 -1 6 -5
28 -9 50 -28 176 -132 510 -214 687 -17 36 -31 68 -31 71 0 15 -163 298 -222
387 -67 99 -176 243 -243 320 -38 44 -261 267 -300 300 -270 230 -597 428
-905 547 -81 31 -228 82 -255 88 -11 2 -38 9 -60 15 -91 24 -191 47 -239 54
-21 4 -41 8 -45 10 -7 5 -51 11 -141 21 -30 4 -68 9 -85 11 -35 6 -512 14
-517 9z"/>
</g>
</svg>
